PathFileType	4	(X/Y/Z)	C:\Users\Basilio\Documents\Thesis Gigler\squatting_fais\c3dfiles\044\SLS_back_pre2\markers_experimental.trc
DataRate	CameraRate	NumFrames	NumMarkers	Units	OrigDataRate	OrigDataStartFrame	OrigNumFrames
200.000000	200.000000	4	63	mm	200.000000	543	1449
Frame#	Time	FHD			LBHD			RBHD			C7			T10			LSHO			LUUPA			LMUPA			LDUPA			LLEP			LMEP			LUL			LRFIN			RSHO			RUPA1			RMUPA			RDUPA			RLEP			RMEP			RUL			LASI			RASI			USACR			LSACR			RSACR			LTHI1			LTHI2			LTHI3			LTHI4			LLFC			LMFC			LTIB1			LTIB2			LTIB3			LTIB4			LLMAL			LMMAL			LHEE			LMT1			LMT2			LMT5			RTHI			RTHI2			RTHI3			RTHI4			RLFC			RMFC			RTIB1			RTIB2			RTIB3			RTIB4			RLMAL			RMMAL			RHEE			RMT1			RMT2			RMT5			RUFIN			CLAV			LRAD			RRAD			*61			*62			
		X1	Y1	Z1	X2	Y2	Z2	X3	Y3	Z3	X4	Y4	Z4	X5	Y5	Z5	X6	Y6	Z6	X7	Y7	Z7	X8	Y8	Z8	X9	Y9	Z9	X10	Y10	Z10	X11	Y11	Z11	X12	Y12	Z12	X13	Y13	Z13	X14	Y14	Z14	X15	Y15	Z15	X16	Y16	Z16	X17	Y17	Z17	X18	Y18	Z18	X19	Y19	Z19	X20	Y20	Z20	X21	Y21	Z21	X22	Y22	Z22	X23	Y23	Z23	X24	Y24	Z24	X25	Y25	Z25	X26	Y26	Z26	X27	Y27	Z27	X28	Y28	Z28	X29	Y29	Z29	X30	Y30	Z30	X31	Y31	Z31	X32	Y32	Z32	X33	Y33	Z33	X34	Y34	Z34	X35	Y35	Z35	X36	Y36	Z36	X37	Y37	Z37	X38	Y38	Z38	X39	Y39	Z39	X40	Y40	Z40	X41	Y41	Z41	X42	Y42	Z42	X43	Y43	Z43	X44	Y44	Z44	X45	Y45	Z45	X46	Y46	Z46	X47	Y47	Z47	X48	Y48	Z48	X49	Y49	Z49	X50	Y50	Z50	X51	Y51	Z51	X52	Y52	Z52	X53	Y53	Z53	X54	Y54	Z54	X55	Y55	Z55	X56	Y56	Z56	X57	Y57	Z57	X58	Y58	Z58	X59	Y59	Z59	X60	Y60	Z60	X61	Y61	Z61	X62	Y62	Z62	X63	Y63	Z63	

544	2.715	-91.51529693603517	1654.195678710938	-1077.422973632813	-228.9421386718751	1624.449584960938	-1146.422607421875	-266.5314941406251	1618.005493164063	-983.6446533203127	-301.2057189941407	1452.202880859375	-1063.030029296875	-375.6348876953126	1169.088134765625	-1010.752563476563	-214.8591003417969	1453.2216796875	-1205.401489257813	-56.4430389404297	1434.31494140625	-1308.157592773438	-27.61638832092286	1447.421264648438	-1268.983154296875	11.52123641967774	1431.27587890625	-1310.750610351563	70.43865966796876	1432.933227539063	-1302.25	65.69692230224611	1357.864624023438	-1287.440795898438	331.8450317382813	1461.889282226563	-1193.873168945313	334.6057434082032	1481.924682617188	-1092.497436523438	-208.9098358154297	1459.777099609375	-911.4681396484377	-59.14059066772462	1447.979858398438	-806.2390136718752	-29.07648468017579	1459.556518554688	-845.1594848632815	10.47579097747803	1448.07080078125	-801.6213378906252	72.03984832763673	1451.967651367188	-810.4734497070315	71.87031555175783	1370.24462890625	-820.4270629882815	322.3726806640626	1473.95458984375	-939.9775390625002	-283.5580749511719	937.9705200195315	-1098.558837890625	-273.2828063964844	919.7493286132815	-883.0576171875002	-419.7675781250001	1034.574829101563	-976.4353027343752	-439.7535705566407	1006.962585449219	-1001.8701171875	-430.2088928222657	1007.115661621094	-945.6538085937502	-320.0234985351563	735.2794189453126	-1180.106079101563	-253.8282928466797	683.3605957031251	-1185.234252929688	-213.1731414794922	706.3273315429689	-1178.024047851563	-251.4223327636719	623.1351928710939	-1170.521118164063	-171.3040008544922	491.0012512207032	-1152.822021484375	-158.896240234375	497.1387023925782	-1032.81005859375	-183.3731384277344	327.6400146484376	-1052.4453125	-226.8772277832032	281.6559143066407	-1113.73681640625	-194.3973999023438	275.0346984863282	-1077.323852539063	-234.629379272461	214.2205200195313	-1034.979614257813	-323.9151611328126	113.3455047607422	-1067.394897460938	-298.1096801757813	132.4910430908203	-983.7635498046877	-388.1379699707032	96.44399261474612	-1011.273803710938	-181.477035522461	61.18852996826173	-989.1727294921877	-180.2203521728516	58.94223785400392	-1035.237670898438	-216.7852478027344	42.27185058593751	-1080.997436523438	-385.8473205566407	671.2312011718751	-787.6699218750002	-341.2095031738282	619.4125976562501	-781.7803344726565	-309.6434936523438	621.7030029296876	-789.8259887695315	-364.4323120117188	538.0007324218751	-790.759948730469	-385.936492919922	455.4010314941407	-801.490661621094	-388.4232482910157	442.7655334472657	-917.3613891601565	-482.0052795410157	367.5164794921876	-827.6865234375002	-572.9601440429689	423.1280822753907	-799.343444824219	-566.7325439453126	378.2286376953126	-809.2723388671877	-610.2766113281251	352.4429321289063	-837.293395996094	-778.9508056640627	374.9449768066407	-842.5863037109377	-753.3571777343751	351.2860107421876	-922.7062988281252	-817.0133056640627	417.4767456054689	-903.6186523437502	-782.735290527344	209.998764038086	-903.3752441406252	-790.9317016601565	203.7230072021485	-866.6220703125002	-830.6621093750002	238.9734954833985	-825.5706176757815	322.9413757324219	1453.438232421875	-1056.566284179688	nan	nan	nan	nan	nan	nan	nan	nan	nan	nan	nan	nan	nan	nan	nan	
545	2.72	-91.13594818115236	1652.73095703125	-1077.49560546875	-228.7100982666016	1622.952270507813	-1146.286987304688	-266.0888366699219	1617.063354492188	-983.757019042969	-300.9838867187501	1451.385131835938	-1062.955200195313	-375.9351501464844	1168.269897460938	-1010.581420898438	-214.7461547851563	1452.263061523438	-1205.554809570313	-56.37815856933595	1433.241455078125	-1308.199340820313	-27.51303291320801	1446.198852539063	-1269.05712890625	11.49279594421387	1430.041870117188	-1310.815795898438	69.9224090576172	1431.994750976563	-1302.210693359375	66.03839111328126	1356.766479492188	-1287.896240234375	332.1990966796876	1460.200805664063	-1193.983520507813	334.6871337890626	1480.15380859375	-1092.623291015625	-208.2499084472657	1458.42041015625	-911.4943847656252	-58.75708770751955	1447.04736328125	-806.313415527344	-28.75838661193848	1458.371704101563	-845.2965087890627	10.94911479949951	1446.697387695313	-801.6392822265627	72.31008148193361	1450.714111328125	-810.565856933594	72.21707916259767	1369.067504882813	-820.621765136719	322.5798645019532	1472.814819335938	-940.1154785156252	-283.4603881835938	936.8908691406252	-1098.687622070313	-274.0235595703126	918.6965942382815	-882.9421386718752	-420.3107299804689	1034.301391601563	-976.6296386718752	-440.379852294922	1006.267883300781	-1001.839538574219	-430.5997314453126	1006.477966308594	-945.6470336914065	-320.2755432128907	734.8407592773439	-1180.165161132813	-253.9577026367188	683.0854492187501	-1185.262451171875	-212.8665618896485	705.6204223632814	-1177.954467773438	-251.3681640625001	622.8164672851564	-1170.633422851563	-170.9403839111328	490.8851318359376	-1152.880737304688	-158.8115386962891	497.0496826171876	-1032.868408203125	-183.2016754150391	327.7284545898438	-1052.5498046875	-226.6567993164063	281.6969604492188	-1113.787719726563	-194.2453155517579	275.1353454589844	-1077.541259765625	-234.6424865722657	214.1573486328126	-1035.056884765625	-324.0200195312501	113.3195953369141	-1067.5087890625	-298.0826416015626	132.4324035644532	-983.8952636718752	-388.1146240234376	96.45923614501956	-1011.368225097656	-181.4651031494141	61.40784454345705	-989.1896972656252	-180.2469024658203	58.87474822998048	-1035.289672851563	-216.7299041748047	42.30283355712891	-1081.07666015625	-386.2312011718751	670.2824707031251	-787.5473632812502	-341.5339660644532	618.8341674804689	-782.1165771484377	-309.7992553710938	620.9766235351564	-789.4675292968752	-364.1766967773438	536.7227783203126	-790.0613403320315	-385.8105468750001	454.5293273925782	-801.3250122070315	-388.0198059082032	441.9981689453126	-917.2793579101565	-481.6404113769532	366.6062927246094	-827.7550048828127	-572.6634521484376	422.4362182617189	-799.7060546875002	-566.3377075195314	377.3772888183594	-809.6506958007815	-610.0621948242189	351.6809387207032	-837.484313964844	-778.6619262695315	374.1184387207032	-842.979431152344	-752.8442993164064	350.7261962890626	-923.108581542969	-816.7364501953127	417.134735107422	-904.1251220703127	-782.5133056640627	209.4598083496094	-904.0065917968752	-790.7700195312502	202.9739379882813	-867.2600097656252	-830.5596923828127	238.4185485839844	-826.170837402344	321.3814086914063	1453.404052734375	-1057.597534179688	nan	nan	nan	nan	nan	nan	nan	nan	nan	nan	nan	nan	nan	nan	nan	
546	2.725	-90.67151641845705	1651.970825195313	-1077.511840820313	-228.3029327392579	1621.82568359375	-1146.397338867188	-265.6797485351563	1616.390014648438	-984.0063476562502	-300.5533142089844	1449.958251953125	-1062.749633789063	-376.0437622070313	1167.518676757813	-1010.543701171875	-214.3516082763672	1451.30517578125	-1205.507446289063	-56.1738624572754	1432.1201171875	-1308.276611328125	-27.18673515319825	1445.1796875	-1269.18896484375	11.83517837524414	1429.038940429688	-1310.837036132813	70.7558059692383	1430.376342773438	-1302.365112304688	65.91837310791017	1355.5302734375	-1287.665161132813	332.2873840332032	1458.715209960938	-1194.005859375	334.7461853027344	1479.256713867188	-1093.15234375	-207.7374725341797	1457.402465820313	-911.526062011719	-58.42202758789064	1445.978515625	-806.2822875976565	-28.37717628479005	1457.305541992188	-845.3533935546877	11.14762401580811	1445.840454101563	-801.677917480469	72.54258728027345	1449.64404296875	-810.556091308594	72.55835723876955	1367.621704101563	-820.4129028320315	322.8414306640626	1471.48486328125	-940.126892089844	-284.0986633300782	936.1110839843752	-1098.55859375	-274.7337951660157	918.047058105469	-882.7523193359377	-420.6323852539064	1033.30126953125	-976.282897949219	-440.7561950683595	1005.640991210938	-1001.849426269531	-431.2415161132814	1005.730285644531	-945.4964599609377	-320.5664978027344	734.4494018554689	-1180.32080078125	-254.0315093994141	682.9535522460939	-1185.330322265625	-213.0742645263672	705.4058837890626	-1177.811889648438	-251.261703491211	622.5747070312501	-1170.7587890625	-170.6398010253907	490.7054748535157	-1152.943603515625	-158.7933807373047	497.0158691406251	-1032.955932617188	-183.124008178711	327.6884765625001	-1052.60400390625	-226.4657897949219	281.6358947753907	-1113.840087890625	-194.2096405029297	274.9645385742188	-1077.573120117188	-234.6227264404297	214.0996551513672	-1035.082641601563	-324.0300598144532	113.2136917114258	-1067.62890625	-298.0388793945313	132.3994903564453	-984.0438232421877	-388.1317443847657	96.38759613037112	-1011.318969726563	-181.5831909179688	61.540340423584	-989.312927246094	-180.2388763427735	58.86450576782228	-1035.303466796875	-216.8442382812501	42.19379425048829	-1081.065307617188	-386.5743713378907	669.6278686523439	-787.6791992187502	-341.5346374511719	618.0400390625001	-781.8715820312502	-310.1831665039063	620.2867431640626	-788.8198242187502	-364.2449035644532	535.8734130859376	-789.873962402344	-385.436004638672	453.8150634765626	-801.4197998046877	-387.7288513183595	441.3111267089845	-917.2263793945315	-481.1877441406251	366.0053405761719	-827.9451904296877	-572.4130249023439	421.5375061035157	-800.003601074219	-566.2175903320314	376.7509765625001	-809.8237304687502	-609.6478271484376	350.9140014648438	-837.9822998046877	-778.1622314453127	373.4727783203126	-843.5805664062502	-752.5948486328126	350.4371032714844	-923.5064697265627	-816.3782958984377	416.5528869628907	-904.5546875000002	-782.287536621094	208.8977508544922	-904.3983154296877	-790.3275146484377	202.1323394775391	-867.844665527344	-830.441833496094	237.6134185791016	-826.7705688476565	322.4110107421876	1451.244750976563	-1057.327392578125	nan	nan	nan	nan	nan	nan	nan	nan	nan	nan	nan	nan	nan	nan	nan	
547	2.73	-90.11296844482423	1650.406860351563	-1077.55126953125	-227.8179779052735	1620.890380859375	-1146.538818359375	-265.2967834472657	1615.271240234375	-984.068298339844	-300.5853271484376	1449.304443359375	-1063.04248046875	-376.2603759765626	1166.739379882813	-1010.38818359375	-213.8819274902344	1450.150512695313	-1205.40478515625	-56.15210342407228	1430.882568359375	-1308.379760742188	-27.13351440429688	1443.7666015625	-1269.189331054688	12.06524658203125	1427.6953125	-1311.115234375	70.82556152343751	1429.142456054688	-1302.384765625	66.22796630859376	1354.356689453125	-1288.090454101563	332.7731018066407	1457.487670898438	-1194.3662109375	334.5744018554688	1478.941040039063	-1093.813354492188	-207.7926330566407	1456.777465820313	-911.7811279296877	-57.92956542968751	1444.801879882813	-806.3260498046877	-28.05158996582032	1456.220703125	-845.5159301757815	11.42390537261963	1444.520141601563	-801.6936035156252	72.87098693847658	1448.444946289063	-810.561950683594	72.86038208007814	1366.666625976563	-819.8282470703127	323.0738830566407	1470.502197265625	-940.3220214843752	-284.7748107910157	935.290222167969	-1098.327392578125	-275.4906616210938	916.9794921875002	-882.5068969726565	-421.2818603515626	1032.745727539063	-976.1656494140627	-441.3597717285157	1004.957275390625	-1001.73388671875	-431.5827026367189	1005.067810058594	-945.4570312500002	-320.7265930175782	733.9674072265626	-1180.495483398438	-254.1426849365235	682.7243041992189	-1185.373168945313	-213.2437438964844	705.1699218750001	-1177.78564453125	-251.1956329345704	622.2898559570314	-1170.8896484375	-170.354721069336	490.6079711914064	-1152.950805664063	-158.6644287109375	496.9100952148439	-1032.996704101563	-183.0798645019532	327.6804504394532	-1052.632690429688	-226.364730834961	281.4874572753907	-1113.830200195313	-194.1697692871094	274.8796386718751	-1077.631591796875	-234.5804748535157	214.0133209228516	-1035.117797851563	-324.1081542968751	113.1522369384766	-1067.7548828125	-298.0754394531251	132.4794311523438	-984.2188720703127	-388.1378784179689	96.39125061035159	-1011.392150878906	-181.3968200683594	61.34868621826173	-989.3903808593752	-180.271469116211	58.96683502197267	-1035.307373046875	-216.8573455810547	42.25527572631837	-1081.059692382813	-386.8341369628907	668.6763305664064	-787.5588989257815	-341.5457763671876	617.1450805664064	-781.2651977539065	-310.4464111328126	619.9531250000001	-788.7180175781252	-364.1861267089844	535.2824707031251	-790.0180664062502	-385.2147827148439	453.056610107422	-801.3806152343752	-387.244354248047	440.5350036621095	-917.0327758789065	-480.9217834472657	365.3241577148438	-827.7402343750002	-572.1978149414064	420.8372192382814	-800.3248291015627	-565.8458251953126	376.0177612304688	-810.235534667969	-609.2304077148439	350.1174926757813	-838.373229980469	-777.8982543945315	372.8696289062501	-844.1060791015627	-752.0783081054689	349.7543334960938	-923.7817382812502	-816.100769042969	415.8576660156251	-904.896423339844	-781.097839355469	209.7895965576172	-905.8131103515627	-790.098571777344	201.5101928710938	-868.2709960937502	-830.2342529296877	236.9785614013672	-827.2297363281252	323.9231262207032	1449.568237304688	-1057.291015625	nan	nan	nan	nan	nan	nan	nan	nan	nan	nan	nan	nan	nan	nan	nan	
